<?xml version="1.0" encoding="utf-8"?>
<!-- Generator: Adobe Illustrator 25.3.1, SVG Export Plug-In . SVG Version: 6.00 Build 0)  -->
<svg version="1.1" id="Layer_1" xmlns="http://www.w3.org/2000/svg" xmlns:xlink="http://www.w3.org/1999/xlink" x="0px" y="0px"
	 viewBox="0 0 1137 216" style="enable-background:new 0 0 1137 216;" xml:space="preserve">
<style type="text/css">
	.st0{display:none;fill:none;stroke:#CD9AFB;stroke-width:3;stroke-linecap:round;stroke-linejoin:round;}
	.st1{fill:none;stroke:#81C951;stroke-width:3;stroke-linecap:round;stroke-linejoin:round;}
</style>
<path class="st0" d="M-1,214h38.5c1.8-42.1,3.6-163.6,3.6-163.6c38.9-2.7,164.3,3.1,164.3,3.1l-8.4-6.8l4.8-6.2H44.1
	c11.8,1.7,36.1,6.6,38.5,13c3,8.1-5.4,13.6-3.6,1.9C80.9,43.5,91.7,7,114.6,8.2c22.9,1.2,38.5,19.8,39.1,50.2c0,6.8-10.8,1.9-4.8-5
	c6-6.8,12-6.8,7.8-17.4C152.5,25.6,141.7,1.4,123,2c-18.7,0.6-30.7,17.4-33.1,42.8c-1.9,20.3-0.8,28.7,0,30.4
	c18.3,9.5,58.9,34.1,75.2,56.4c16.4,22.3,30.1,46.9,34.9,56.4c-0.4-38.8,0.1-118.8,5.4-127.7c0.6-0.6,3.3,140.7,11.7,153.7
	c3.4,0,106.3,0,156.8,0"/>
<path class="st1" d="M2,214h38.5c1.8-42.1,3.6-163.6,3.6-163.6c38.9-2.7,164.3,3.1,164.3,3.1l-8.4-6.8l4.8-6.2H47.1
	c11.8,1.7,36.1,6.6,38.5,13c3,8.1-5.4,13.6-3.6,1.9C83.9,43.5,94.7,7,117.6,8.2c22.9,1.2,38.5,19.8,39.1,50.2c0,6.8-10.8,1.9-4.8-5
	c6-6.8,12-6.8,7.8-17.4C155.5,25.6,144.7,1.4,126,2c-18.7,0.6-30.7,17.4-33.1,42.8c-1.9,20.3-0.8,28.7,0,30.4
	c18.3,9.5,58.9,34.1,75.2,56.4c16.4,22.3,30.1,46.9,34.9,56.4c-0.4-38.8,0.1-118.8,5.4-127.7c0.6-0.6,3.3,140.7,11.7,153.7
	c3.4,0,106.3,0,156.8,0"/>
<path class="st1" d="M377,214h152.3c6.2-1.2,20.1-6.8,25.9-19.4c7.2-15.7,17.5-69.5,0-105.2c-17.5-35.7-50.6-21.2-58.4,20
	c-7.8,41.1,2.4,85.9,18.7,94.9c16.3,9.1,28.3,3,34.9-18.1c6.6-21.2,9.6-47.8,4.8-67.7c-4.8-20-11.4-3-12,4.2s-0.6,23,2.4,11.5
	c3-11.5,5.4-39.3,0-44.8c-5.4-5.4-9.6,3-11.4,9.7c-1.8,6.7-4.8,18.1-4.8,23.6s-1.8,26,4.8,9.7C540.8,116,545.6,32,545.6,27.1
	c0-4.8-1.8-6.7-5.4-6c-3.6,0.6-11.4,2.4-13.2,3c-1.8,0.6-2.4,1.2-2.4,3.6c0,2.4,0,7.3-4.2,3c-4.2-4.2-4.8-10.9,0.6-10.3
	c5.4,0.6,9-3.6,9.6-6c0.6-2.4,0-4.2-2.4-5.4c-2.4-1.2-6,1.8-4.8,4.8c1.2,3,4.2,6.7,13.8,4.2c9.6-2.4,39.7-7.3,45.7-13.3
	c6-6,9-0.6,10.8,1.8c1.8,2.4,6.6,7.9,4.8,9.7c-1.8,1.8-6.6-3.6-8.4-5.4c-1.8-1.8-3.6-3.6-9-0.6c-5.4,3-18.1,7.3-22.9,7.3
	c-4.8,0-8.4,2.4-8.4,10.3s-2.4,26.6-1.2,36.3s15,41.7,16.9,45.4c1.8,3.6,5.4,5.4,4.8-2.4c-0.6-7.9,1.2-48.4,1.2-44.8
	c0,3.6,0-6.7-6-8.5c-6-1.8-6.6-1.2-10.2-1.2c-3.6,0-5.4,1.2-1.2,2.4c4.2,1.2,16.3,1.8,17.5-2.4c1.2-4.2,1.8-14.5-4.2-15.1
	c-6-0.6-7.8-1.2-7.8-4.8s12.6-4.2,18.1-4.8c5.4-0.6,9.6,1.2,9,4.8s-9,1.2-9,13.3s-6,73.8-4.8,83.5c1.2,9.7,0,26.6,11.4,15.7
	s12-21.2,11.4-25.4c-0.6-4.2-4.8-9.7-11.4-5.4c-6.6,4.2-9,8.5-8.4,15.1c0.6,6.7,0,34.5,12,33.9c12-0.6,10.8-47.2,10.8-58.1
	c0-10.9-4.8-32.1-8.4-32.1c-3.6,0-3,10.3-7.2,10.3c-4.2,0-3.6-9.7-1.8-12.1c1.8-2.4,7.2-10.9,15.7-1.8s7.2,30.8,7.2,41.1
	s-8.4,38.1,8.4,38.1c16.9,0,24.7-3.6,39.1-3.6c11.6,0,73.8,0,103.5,0"/>
<path class="st1" d="M755,145.1l91.1-0.1c-3-4.8-4.3-6.6-6.4-11.3c-15-32.8-9.5-62.8,4.1-86.1c10.9-18.6,24.5-28.7,30-31.4
	c0.5,1.4,0.8,4.6-1.4,6.8c-2.7,2.7-8.2,15-5.5,19.1c2.7,4.1,4.1,8.2,4.1,10.9c0,2.7-1.4,8.2,2.7,8.2c4.1,0,4.1,6.8,6.8,5.5
	c2.7-1.4,9.5-1.4,13.6,2.7c4.1,4.1,23.2,16.4,35.4,2.7c3.2,2.7,10.6,7.4,15,4.1c5.5-4.1,5.5,0,6.8,1.4c1.4,1.4,4.1,8.2,9.5,6.8
	c5.5-1.4,8.2,6.8,9.5,9.6c1.4,2.7,8.2,6.8,13.6,6.8c5.5,0,5.5,8.2,2.7,10.9c-2.2,2.2-5.5,4.6-6.8,5.5c0,1.4-0.3,4.4-1.4,5.5
	c-1.4,1.4-4.1,0-5.5,2.7c-1.4,2.7,1.4,8.2-4.1,10.9c-5.5,2.7-12.3-4.1-17.7,1.4c-5.5,5.5,4.1,9.6,2.7,15c-1.4,5.5-8.2,4.1-6.8,9.6
	c1.4,5.5,9.5,12.3,10.9,12.3c1.4,0,38.2-13.7,50.4-51.9c12.3-38.3-1.4-79.2-31.4-102.5c-30-23.2-61.3-21.9-94.1-9.6
	c-4.1,2.7-1.4,5.5,4.1,4.1c5.5-1.4,20.5-9.6,46.4-8.2c5.5,0,5.5,2.7,5.5,4.1c0,1.4,4.1,2.7,2.7,6.8c-1.4,4.1-4.1,4.1-6.8,4.1
	c-2.7,0-5.5-1.4-6.8,0c-1.4,1.4,1.4,2.7,1.4,4.1c0,1.4,1.4,5.5-4.1,6.8c-5.5,1.4-9.5,2.7-9.5,5.5c0,2.7,1.4,5.5-1.4,5.5
	c-2.2,0-1.8,2.7-1.4,4.1c0.9,2.3,1.9,6.3-1.4,4.1c-4.1-2.7-4.1-4.1-4.1-5.5c0-1.4-2.7-5.5-5.5-2.7c-2.7,2.7-4.1,2.7-8.2,1.4
	c-4.1-1.4-9.5,1.4-6.8,6.8c2.7,5.5,6.8,9.6,9.5,6.8c2.7-2.7,5.5-2.7,5.5,0c0,2.7-2.7,4.1-1.4,6.8c1.4,2.7,6.8,2.7,9.5,6.8
	c2.7,4.1,1.4,9.6,1.4,12.3c0,2.7,2.7,4.1,2.7,6.8c0,2.7-2.7,5.5-2.7,8.2c0,2.7,4.1,4.1,4.1,6.8c0,2.7-4.1,4.1-2.7,6.8
	c1.4,2.7,19.1,10.9,19.1,17.8c0,6.8-2.7,8.2-2.7,10.9c0,2.7,1.4,4.1,1.4,8.2c0,4.1-2.7,8.2-5.5,13.7c-2.7,5.5,2.7,6.8,5.5,4.1
	c2.7-2.7,5.5-5.5,8.2-5.5s5.5,4.1,6.8,6.8c1.4,2.7,4.1,6.8,6.8,8.2c2.7,1.4,10.9,1.4,13.6,1.4c2.2,0,114.5,0,170.4,0"/>
<path class="st0" d="M380,214h152.3c6.2-1.2,20.1-6.8,25.9-19.4c7.2-15.7,17.5-69.5,0-105.2c-17.5-35.7-50.6-21.2-58.4,20
	c-7.8,41.1,2.4,85.9,18.7,94.9c16.3,9.1,28.3,3,34.9-18.1c6.6-21.2,9.6-47.8,4.8-67.7c-4.8-20-11.4-3-12,4.2s-0.6,23,2.4,11.5
	c3-11.5,5.4-39.3,0-44.8c-5.4-5.4-9.6,3-11.4,9.7c-1.8,6.7-4.8,18.1-4.8,23.6s-1.8,26,4.8,9.7C543.8,116,548.6,32,548.6,27.1
	c0-4.8-1.8-6.7-5.4-6c-3.6,0.6-11.4,2.4-13.2,3c-1.8,0.6-2.4,1.2-2.4,3.6c0,2.4,0,7.3-4.2,3c-4.2-4.2-4.8-10.9,0.6-10.3
	c5.4,0.6,9-3.6,9.6-6c0.6-2.4,0-4.2-2.4-5.4c-2.4-1.2-6,1.8-4.8,4.8c1.2,3,4.2,6.7,13.8,4.2c9.6-2.4,39.7-7.3,45.7-13.3
	c6-6,9-0.6,10.8,1.8c1.8,2.4,6.6,7.9,4.8,9.7c-1.8,1.8-6.6-3.6-8.4-5.4c-1.8-1.8-3.6-3.6-9-0.6c-5.4,3-18.1,7.3-22.9,7.3
	c-4.8,0-8.4,2.4-8.4,10.3s-2.4,26.6-1.2,36.3s15,41.7,16.9,45.4c1.8,3.6,5.4,5.4,4.8-2.4c-0.6-7.9,1.2-48.4,1.2-44.8
	c0,3.6,0-6.7-6-8.5c-6-1.8-6.6-1.2-10.2-1.2c-3.6,0-5.4,1.2-1.2,2.4c4.2,1.2,16.3,1.8,17.5-2.4c1.2-4.2,1.8-14.5-4.2-15.1
	c-6-0.6-7.8-1.2-7.8-4.8s12.6-4.2,18.1-4.8c5.4-0.6,9.6,1.2,9,4.8s-9,1.2-9,13.3s-6,73.8-4.8,83.5c1.2,9.7,0,26.6,11.4,15.7
	s12-21.2,11.4-25.4c-0.6-4.2-4.8-9.7-11.4-5.4c-6.6,4.2-9,8.5-8.4,15.1c0.6,6.7,0,34.5,12,33.9c12-0.6,10.8-47.2,10.8-58.1
	c0-10.9-4.8-32.1-8.4-32.1c-3.6,0-3,10.3-7.2,10.3c-4.2,0-3.6-9.7-1.8-12.1c1.8-2.4,7.2-10.9,15.7-1.8s7.2,30.8,7.2,41.1
	s-8.4,38.1,8.4,38.1c16.9,0,24.7-3.6,39.1-3.6c11.6,0,73.8,0,103.5,0"/>
<path class="st0" d="M752,145.1l91.1-0.1c-3-4.8-4.3-6.6-6.4-11.3c-15-32.8-9.5-62.8,4.1-86.1c10.9-18.6,24.5-28.7,30-31.4
	c0.5,1.4,0.8,4.6-1.4,6.8c-2.7,2.7-8.2,15-5.5,19.1c2.7,4.1,4.1,8.2,4.1,10.9c0,2.7-1.4,8.2,2.7,8.2c4.1,0,4.1,6.8,6.8,5.5
	c2.7-1.4,9.5-1.4,13.6,2.7c4.1,4.1,23.2,16.4,35.4,2.7c3.2,2.7,10.6,7.4,15,4.1c5.5-4.1,5.5,0,6.8,1.4c1.4,1.4,4.1,8.2,9.5,6.8
	c5.5-1.4,8.2,6.8,9.5,9.6c1.4,2.7,8.2,6.8,13.6,6.8c5.5,0,5.5,8.2,2.7,10.9c-2.2,2.2-5.5,4.6-6.8,5.5c0,1.4-0.3,4.4-1.4,5.5
	c-1.4,1.4-4.1,0-5.5,2.7c-1.4,2.7,1.4,8.2-4.1,10.9c-5.5,2.7-12.3-4.1-17.7,1.4c-5.5,5.5,4.1,9.6,2.7,15c-1.4,5.5-8.2,4.1-6.8,9.6
	c1.4,5.5,9.5,12.3,10.9,12.3c1.4,0,38.2-13.7,50.4-51.9c12.3-38.3-1.4-79.2-31.4-102.5c-30-23.2-61.3-21.9-94.1-9.6
	c-4.1,2.7-1.4,5.5,4.1,4.1c5.5-1.4,20.5-9.6,46.4-8.2c5.5,0,5.5,2.7,5.5,4.1c0,1.4,4.1,2.7,2.7,6.8c-1.4,4.1-4.1,4.1-6.8,4.1
	c-2.7,0-5.5-1.4-6.8,0c-1.4,1.4,1.4,2.7,1.4,4.1c0,1.4,1.4,5.5-4.1,6.8c-5.5,1.4-9.5,2.7-9.5,5.5c0,2.7,1.4,5.5-1.4,5.5
	c-2.2,0-1.8,2.7-1.4,4.1c0.9,2.3,1.9,6.3-1.4,4.1c-4.1-2.7-4.1-4.1-4.1-5.5c0-1.4-2.7-5.5-5.5-2.7c-2.7,2.7-4.1,2.7-8.2,1.4
	c-4.1-1.4-9.5,1.4-6.8,6.8c2.7,5.5,6.8,9.6,9.5,6.8c2.7-2.7,5.5-2.7,5.5,0c0,2.7-2.7,4.1-1.4,6.8c1.4,2.7,6.8,2.7,9.5,6.8
	c2.7,4.1,1.4,9.6,1.4,12.3c0,2.7,2.7,4.1,2.7,6.8c0,2.7-2.7,5.5-2.7,8.2c0,2.7,4.1,4.1,4.1,6.8c0,2.7-4.1,4.1-2.7,6.8
	c1.4,2.7,19.1,10.9,19.1,17.8c0,6.8-2.7,8.2-2.7,10.9c0,2.7,1.4,4.1,1.4,8.2c0,4.1-2.7,8.2-5.5,13.7c-2.7,5.5,2.7,6.8,5.5,4.1
	c2.7-2.7,5.5-5.5,8.2-5.5s5.5,4.1,6.8,6.8c1.4,2.7,4.1,6.8,6.8,8.2c2.7,1.4,10.9,1.4,13.6,1.4c2.2,0,114.5,0,170.4,0"/>
</svg>
